<svg xmlns="http://www.w3.org/2000/svg" width="60" height="60" viewBox="0 0 60 60">
  <g fill="none" fill-rule="evenodd">
    <g transform="translate(5.619 11.448)">
      <path stroke="#1E79BE" stroke-width="3.844" d="M9.82881818 19.64925C15.2571248 19.64925 19.6576364 15.2506158 19.6576364 9.824625 19.6576364 4.39863417 15.2571248 0 9.82881818 0 4.40051152 0 0 4.39863417 0 9.824625 0 15.2506158 4.40051152 19.64925 9.82881818 19.64925zM39.8613182 19.64925C45.2896248 19.64925 49.6901364 15.2506158 49.6901364 9.824625 49.6901364 4.39863417 45.2896248 0 39.8613182 0 34.4330115 0 30.0325 4.39863417 30.0325 9.824625 30.0325 15.2506158 34.4330115 19.64925 39.8613182 19.64925z"/>
      <path stroke="#1E79BE" stroke-width="3.844" d="M2.67835295,16.374375 C2.67835295,16.374375 -1.48524364,40.9332084 24.6293802,40.9359375 C50.8013389,40.9386666 46.4138636,16.374375 46.4138636,16.374375"/>
      <path stroke="#1E79BE" stroke-width="3.844" d="M18.8412984,29.2064269 C18.8412984,29.2064269 20.4848952,31.6407506 25.0361841,31.4060512 C29.587473,31.1713519 31.4467577,28.6578853 31.809878,27.0586547" stroke-linecap="round"/>
      <rect width="5.46" height="5.458" x="38.223" y="8.187" fill="#1E79BE" rx="2.729"/>
      <rect width="5.46" height="5.458" x="8.191" y="8.187" fill="#1E79BE" rx="2.729"/>
    </g>
  </g>
</svg>
